<?xml version="1.0" encoding="iso-8859-1"?>
<!-- Generator: Adobe Illustrator 21.0.0, SVG Export Plug-In . SVG Version: 6.00 Build 0)  -->
<svg xmlns="http://www.w3.org/2000/svg" xmlns:xlink="http://www.w3.org/1999/xlink" version="1.1" id="Capa_1" x="0px" y="0px" viewBox="0 0 512 512" style="enable-background:new 0 0 512 512;" xml:space="preserve" width="512" height="512">
<g>
	<g>
		<g>
			<g>
				<g>
					<g>
						<g>
							<g>
								<g>
									<g>
										<g>
											<g>
												<g>
													<g>
														<g>
															<g>
																<g>
																	<g>
																		<g>
																			<g>
																				<circle style="fill:#EA348B;" cx="256" cy="256" r="256"/>
																			</g>
																		</g>
																	</g>
																</g>
															</g>
														</g>
													</g>
												</g>
											</g>
										</g>
									</g>
								</g>
							</g>
						</g>
					</g>
				</g>
			</g>
		</g>
	</g>
	<path style="fill:#880E48;" d="M511.17,276.639L359.313,124.781L104,333.781l177.001,177.001   C403.875,498.871,501.319,400.104,511.17,276.639z"/>
	<g>
		<path style="fill:#466288;" d="M408,387.219H295.188v-213.75H408V387.219z"/>
		<rect x="351.594" y="173.469" style="fill:#243145;" width="56.406" height="213.75"/>
		<g>
			<rect x="350.406" y="280.344" style="fill:#8799B3;" width="21.969" height="17.813"/>
			<rect x="350.406" y="244.719" style="fill:#8799B3;" width="21.969" height="17.813"/>
			<rect x="350.406" y="209.094" style="fill:#8799B3;" width="21.969" height="17.813"/>
		</g>
		<path style="fill:#466288;" d="M264.313,387.219H199v-77.188h65.313V387.219z"/>
		<path style="fill:#243145;" d="M264.313,387.219h-32.656v-77.188h32.656V387.219z"/>
		<path style="fill:#DAE0E7;" d="M359.313,333.781H104v-209h255.313V333.781z"/>
		<rect x="231.656" y="124.781" style="fill:#BEC8D6;" width="127.656" height="209"/>
		<path style="fill:#FF728B;" d="M323.688,298.156H139.625v-137.75h184.063V298.156z"/>
		<rect x="184.156" y="369.406" style="fill:#DAE0E7;" width="95" height="17.813"/>
		<rect x="231.656" y="369.406" style="fill:#BEC8D6;" width="47.5" height="17.813"/>
		<path style="fill:#EA348B;" d="M323.688,298.156h-92.031v-137.75h92.031V298.156z"/>
		<path style="fill:#E4187A;" d="M276.188,200.914l-44.531-22.588l-44.531,22.588v57.028l44.531,22.266l44.531-22.266V200.914z     M231.656,198.299l24.41,12.382l-24.41,12.205l-24.41-12.205L231.656,198.299z M258.375,246.933l-26.719,13.359l-26.719-13.359    v-17.491l26.719,13.359l26.719-13.359V246.933z"/>
		<polygon style="fill:#880E48;" points="256.067,210.681 231.656,222.886 231.656,242.801 258.375,229.442 258.375,246.933     231.656,260.293 231.656,280.207 276.188,257.942 276.188,200.914 231.656,178.326 231.656,198.299   "/>
	</g>
</g>















</svg>
