<svg height="464pt" viewBox="0 0 464 464" width="464pt" xmlns="http://www.w3.org/2000/svg"><path d="m232 344c-4.417969 0-8-3.582031-8-8v-48c0-4.417969 3.582031-8 8-8s8 3.582031 8 8v48c0 4.417969-3.582031 8-8 8zm0 0" fill="#394d5c"/><path d="m192 0h80c17.671875 0 32 14.328125 32 32v176c0 17.671875-14.328125 32-32 32h-80c-17.671875 0-32-14.328125-32-32v-176c0-17.671875 14.328125-32 32-32zm0 0" fill="#195c85"/><path d="m208 240h48v32c0 8.835938-7.164062 16-16 16h-16c-8.835938 0-16-7.164062-16-16zm0 0" fill="#aabece"/><path d="m160 48h144v160h-144zm0 0" fill="#e97424"/><path d="m0 416h464v48h-464zm0 0" fill="#195c85"/><g fill="#aabece"><path d="m136 368h192v48h-192zm0 0"/><path d="m24 448h16v16h-16zm0 0"/><path d="m56 448h16v16h-16zm0 0"/><path d="m256 0h16v16h-16zm0 0"/><path d="m224 0h16v16h-16zm0 0"/></g><path d="m192 80h80v32h-80zm0 0" fill="#fcf05a"/><path d="m192 144h80v32h-80zm0 0" fill="#fcf05a"/><path d="m464 48h-80v48h-80v32h112v-48h48zm0 0" fill="#7d8d9c"/><path d="m464 80h-48v48h-112v32h144v-48h16zm0 0" fill="#aabece"/><path d="m128 224c-4.417969 0-8-3.582031-8-8v-127.382812c0-4.417969 3.582031-8 8-8s8 3.582031 8 8v127.382812c0 4.417969-3.582031 8-8 8zm0 0" fill="#7d8d9c"/><path d="m96 153.230469c-4.417969 0-8-3.582031-8-8v-113.230469c0-4.417969 3.582031-8 8-8s8 3.582031 8 8v113.230469c0 4.417969-3.582031 8-8 8zm0 0" fill="#7d8d9c"/></svg>